<mxfile host="app.diagrams.net" agent="Mozilla/5.0 (Macintosh; Intel Mac OS X 10_15_7) AppleWebKit/537.36 (KHTML, like Gecko) Chrome/140.0.0.0 Safari/537.36 Edg/140.0.0.0" version="28.2.3">
  <diagram name="第 1 页" id="vRaQNQYyAvSOhltCz2Ba">
    <mxGraphModel dx="721" dy="473" grid="1" gridSize="10" guides="1" tooltips="1" connect="1" arrows="1" fold="1" page="1" pageScale="1" pageWidth="827" pageHeight="1169" math="1" shadow="0">
      <root>
        <mxCell id="0" />
        <mxCell id="1" parent="0" />
        <mxCell id="Q2M60HAg96HcqKf-Kk6D-293" value="" style="rounded=1;whiteSpace=wrap;html=1;fillColor=#dae8fc;strokeColor=#6c8ebf;fontFamily=Garamond;opacity=60;" vertex="1" parent="1">
          <mxGeometry x="1107.6" y="438" width="240" height="182" as="geometry" />
        </mxCell>
        <mxCell id="Q2M60HAg96HcqKf-Kk6D-263" value="" style="text;html=1;align=center;verticalAlign=middle;whiteSpace=wrap;rounded=1;fillColor=#e1d5e7;strokeColor=#9673a6;fontFamily=Garamond;opacity=60;dashed=1;" vertex="1" parent="1">
          <mxGeometry x="741.0500000000001" y="360" width="240" height="300" as="geometry" />
        </mxCell>
        <mxCell id="Q2M60HAg96HcqKf-Kk6D-189" value="Agent 1" style="text;html=1;align=center;verticalAlign=middle;whiteSpace=wrap;rounded=1;fillColor=#e1d5e7;strokeColor=#9673a6;fontFamily=Garamond;" vertex="1" parent="1">
          <mxGeometry x="468.1" y="545" width="63.5" height="30" as="geometry" />
        </mxCell>
        <mxCell id="Q2M60HAg96HcqKf-Kk6D-190" value="Agent i" style="text;html=1;align=center;verticalAlign=middle;whiteSpace=wrap;rounded=1;fillColor=#e1d5e7;strokeColor=#9673a6;fontFamily=Garamond;" vertex="1" parent="1">
          <mxGeometry x="607.85" y="545" width="63.5" height="30" as="geometry" />
        </mxCell>
        <mxCell id="Q2M60HAg96HcqKf-Kk6D-192" style="edgeStyle=orthogonalEdgeStyle;rounded=0;orthogonalLoop=1;jettySize=auto;html=1;entryX=0.5;entryY=1;entryDx=0;entryDy=0;" edge="1" parent="1" source="Q2M60HAg96HcqKf-Kk6D-191" target="Q2M60HAg96HcqKf-Kk6D-189">
          <mxGeometry relative="1" as="geometry" />
        </mxCell>
        <mxCell id="Q2M60HAg96HcqKf-Kk6D-191" value="&lt;span style=&quot;text-align: start; white-space: pre-wrap;&quot;&gt;$$o_1^t,a_1^{t-1}$$&lt;/span&gt;" style="text;html=1;align=center;verticalAlign=middle;resizable=0;points=[];autosize=1;strokeColor=none;fillColor=none;fontSize=11;" vertex="1" parent="1">
          <mxGeometry x="439.85" y="622" width="120" height="30" as="geometry" />
        </mxCell>
        <mxCell id="Q2M60HAg96HcqKf-Kk6D-194" style="edgeStyle=orthogonalEdgeStyle;rounded=0;orthogonalLoop=1;jettySize=auto;html=1;entryX=0.5;entryY=1;entryDx=0;entryDy=0;" edge="1" parent="1" source="Q2M60HAg96HcqKf-Kk6D-193" target="Q2M60HAg96HcqKf-Kk6D-190">
          <mxGeometry relative="1" as="geometry" />
        </mxCell>
        <mxCell id="Q2M60HAg96HcqKf-Kk6D-193" value="&lt;span style=&quot;text-align: start; white-space: pre-wrap;&quot;&gt;$$o_i^t,a_i^{t-1}$$&lt;/span&gt;" style="text;html=1;align=center;verticalAlign=middle;resizable=0;points=[];autosize=1;strokeColor=none;fillColor=none;fontSize=11;" vertex="1" parent="1">
          <mxGeometry x="584.6" y="622" width="110" height="30" as="geometry" />
        </mxCell>
        <mxCell id="Q2M60HAg96HcqKf-Kk6D-195" value="&lt;font style=&quot;font-size: 24px;&quot;&gt;···&lt;/font&gt;" style="text;html=1;align=center;verticalAlign=middle;whiteSpace=wrap;rounded=0;" vertex="1" parent="1">
          <mxGeometry x="551" y="545" width="42" height="30" as="geometry" />
        </mxCell>
        <mxCell id="Q2M60HAg96HcqKf-Kk6D-197" value="&lt;span style=&quot;text-align: start; white-space: pre-wrap;&quot;&gt;$$Q_1(\tau_1^t,a_1^t,m_{-1})$$&lt;/span&gt;" style="text;html=1;align=center;verticalAlign=middle;resizable=0;points=[];autosize=1;strokeColor=none;fillColor=none;fontSize=11;" vertex="1" parent="1">
          <mxGeometry x="410" y="469" width="180" height="30" as="geometry" />
        </mxCell>
        <mxCell id="Q2M60HAg96HcqKf-Kk6D-199" value="&lt;span style=&quot;text-align: start; white-space: pre-wrap;&quot;&gt;$$Q_i(\tau_i^t,a_i^t,m_{-i})$$&lt;/span&gt;" style="text;html=1;align=center;verticalAlign=middle;resizable=0;points=[];autosize=1;strokeColor=none;fillColor=none;fontSize=11;" vertex="1" parent="1">
          <mxGeometry x="554.6" y="469" width="170" height="30" as="geometry" />
        </mxCell>
        <mxCell id="Q2M60HAg96HcqKf-Kk6D-200" style="edgeStyle=orthogonalEdgeStyle;rounded=0;orthogonalLoop=1;jettySize=auto;html=1;exitX=0.5;exitY=0;exitDx=0;exitDy=0;" edge="1" parent="1" source="Q2M60HAg96HcqKf-Kk6D-189" target="Q2M60HAg96HcqKf-Kk6D-197">
          <mxGeometry relative="1" as="geometry" />
        </mxCell>
        <mxCell id="Q2M60HAg96HcqKf-Kk6D-201" style="edgeStyle=orthogonalEdgeStyle;rounded=0;orthogonalLoop=1;jettySize=auto;html=1;exitX=0.5;exitY=0;exitDx=0;exitDy=0;" edge="1" parent="1" source="Q2M60HAg96HcqKf-Kk6D-190" target="Q2M60HAg96HcqKf-Kk6D-199">
          <mxGeometry relative="1" as="geometry" />
        </mxCell>
        <mxCell id="Q2M60HAg96HcqKf-Kk6D-202" value="Mixing Network" style="text;html=1;align=center;verticalAlign=middle;whiteSpace=wrap;rounded=1;fillColor=#ffe6cc;strokeColor=#d79b00;fontFamily=Garamond;" vertex="1" parent="1">
          <mxGeometry x="450.6" y="390" width="226.5" height="30" as="geometry" />
        </mxCell>
        <mxCell id="Q2M60HAg96HcqKf-Kk6D-203" style="edgeStyle=orthogonalEdgeStyle;rounded=0;orthogonalLoop=1;jettySize=auto;html=1;entryX=0.218;entryY=1;entryDx=0;entryDy=0;entryPerimeter=0;" edge="1" parent="1" source="Q2M60HAg96HcqKf-Kk6D-197" target="Q2M60HAg96HcqKf-Kk6D-202">
          <mxGeometry relative="1" as="geometry" />
        </mxCell>
        <mxCell id="Q2M60HAg96HcqKf-Kk6D-204" style="edgeStyle=orthogonalEdgeStyle;rounded=0;orthogonalLoop=1;jettySize=auto;html=1;entryX=0.833;entryY=0.986;entryDx=0;entryDy=0;entryPerimeter=0;" edge="1" parent="1" source="Q2M60HAg96HcqKf-Kk6D-199" target="Q2M60HAg96HcqKf-Kk6D-202">
          <mxGeometry relative="1" as="geometry" />
        </mxCell>
        <mxCell id="Q2M60HAg96HcqKf-Kk6D-205" value="&lt;span style=&quot;text-align: start; white-space: pre-wrap;&quot;&gt;$$Q_{tot}(\tau,a,m)$$&lt;/span&gt;" style="text;html=1;align=center;verticalAlign=middle;resizable=0;points=[];autosize=1;strokeColor=none;fillColor=none;fontSize=11;" vertex="1" parent="1">
          <mxGeometry x="498.85" y="330" width="130" height="30" as="geometry" />
        </mxCell>
        <mxCell id="Q2M60HAg96HcqKf-Kk6D-206" style="edgeStyle=orthogonalEdgeStyle;rounded=0;orthogonalLoop=1;jettySize=auto;html=1;exitX=0.5;exitY=0;exitDx=0;exitDy=0;entryX=0.502;entryY=0.914;entryDx=0;entryDy=0;entryPerimeter=0;" edge="1" parent="1" source="Q2M60HAg96HcqKf-Kk6D-202" target="Q2M60HAg96HcqKf-Kk6D-205">
          <mxGeometry relative="1" as="geometry" />
        </mxCell>
        <mxCell id="Q2M60HAg96HcqKf-Kk6D-214" style="edgeStyle=orthogonalEdgeStyle;rounded=0;orthogonalLoop=1;jettySize=auto;html=1;entryX=0.5;entryY=1;entryDx=0;entryDy=0;" edge="1" parent="1" source="Q2M60HAg96HcqKf-Kk6D-208" target="Q2M60HAg96HcqKf-Kk6D-210">
          <mxGeometry relative="1" as="geometry" />
        </mxCell>
        <mxCell id="Q2M60HAg96HcqKf-Kk6D-208" value="&lt;span style=&quot;text-align: start; white-space: pre-wrap;&quot;&gt;$$o_i^t,a_i^{t-1}$$&lt;/span&gt;" style="text;html=1;align=center;verticalAlign=middle;resizable=0;points=[];autosize=1;strokeColor=none;fillColor=none;fontSize=11;" vertex="1" parent="1">
          <mxGeometry x="806.4499999999999" y="672" width="110" height="30" as="geometry" />
        </mxCell>
        <mxCell id="Q2M60HAg96HcqKf-Kk6D-215" style="edgeStyle=orthogonalEdgeStyle;rounded=0;orthogonalLoop=1;jettySize=auto;html=1;exitX=0.5;exitY=0;exitDx=0;exitDy=0;entryX=0.5;entryY=1;entryDx=0;entryDy=0;" edge="1" parent="1" source="Q2M60HAg96HcqKf-Kk6D-210" target="Q2M60HAg96HcqKf-Kk6D-211">
          <mxGeometry relative="1" as="geometry" />
        </mxCell>
        <mxCell id="Q2M60HAg96HcqKf-Kk6D-210" value="MLP" style="rounded=1;whiteSpace=wrap;html=1;fillColor=#ffffd9;fontFamily=Garamond;" vertex="1" parent="1">
          <mxGeometry x="831.0500000000001" y="608" width="60" height="30" as="geometry" />
        </mxCell>
        <mxCell id="Q2M60HAg96HcqKf-Kk6D-220" style="rounded=0;orthogonalLoop=1;jettySize=auto;html=1;exitX=1;exitY=0.5;exitDx=0;exitDy=0;" edge="1" parent="1" source="Q2M60HAg96HcqKf-Kk6D-211">
          <mxGeometry relative="1" as="geometry">
            <mxPoint x="935.85" y="563" as="targetPoint" />
          </mxGeometry>
        </mxCell>
        <mxCell id="Q2M60HAg96HcqKf-Kk6D-226" style="edgeStyle=orthogonalEdgeStyle;rounded=0;orthogonalLoop=1;jettySize=auto;html=1;exitX=0.5;exitY=0;exitDx=0;exitDy=0;entryX=0.5;entryY=1;entryDx=0;entryDy=0;" edge="1" parent="1" source="Q2M60HAg96HcqKf-Kk6D-211" target="Q2M60HAg96HcqKf-Kk6D-225">
          <mxGeometry relative="1" as="geometry" />
        </mxCell>
        <mxCell id="Q2M60HAg96HcqKf-Kk6D-233" style="edgeStyle=orthogonalEdgeStyle;rounded=0;orthogonalLoop=1;jettySize=auto;html=1;exitX=0.5;exitY=0;exitDx=0;exitDy=0;entryX=0;entryY=0.5;entryDx=0;entryDy=0;" edge="1" parent="1" source="Q2M60HAg96HcqKf-Kk6D-211" target="Q2M60HAg96HcqKf-Kk6D-227">
          <mxGeometry relative="1" as="geometry" />
        </mxCell>
        <mxCell id="Q2M60HAg96HcqKf-Kk6D-211" value="GRU" style="rounded=1;whiteSpace=wrap;html=1;fillColor=#f5f5f5;strokeColor=#666666;fontFamily=Garamond;fontColor=#333333;" vertex="1" parent="1">
          <mxGeometry x="831.4500000000002" y="548.25" width="60" height="30" as="geometry" />
        </mxCell>
        <mxCell id="Q2M60HAg96HcqKf-Kk6D-221" value="&lt;span style=&quot;text-align: start; white-space: pre-wrap;&quot;&gt;$$\tau_i^t$$&lt;/span&gt;" style="text;html=1;align=center;verticalAlign=middle;resizable=0;points=[];autosize=1;strokeColor=none;fillColor=none;fontSize=11;" vertex="1" parent="1">
          <mxGeometry x="875.85" y="530" width="80" height="30" as="geometry" />
        </mxCell>
        <mxCell id="Q2M60HAg96HcqKf-Kk6D-222" style="rounded=0;orthogonalLoop=1;jettySize=auto;html=1;entryX=0;entryY=0.5;entryDx=0;entryDy=0;" edge="1" parent="1" target="Q2M60HAg96HcqKf-Kk6D-211">
          <mxGeometry relative="1" as="geometry">
            <mxPoint x="969.85" y="560.1428571428573" as="targetPoint" />
            <mxPoint x="778.85" y="563" as="sourcePoint" />
          </mxGeometry>
        </mxCell>
        <mxCell id="Q2M60HAg96HcqKf-Kk6D-223" value="&lt;span style=&quot;text-align: start; white-space: pre-wrap;&quot;&gt;$$\tau_i^{t-1}$$&lt;/span&gt;" style="text;html=1;align=center;verticalAlign=middle;resizable=0;points=[];autosize=1;strokeColor=none;fillColor=none;fontSize=11;" vertex="1" parent="1">
          <mxGeometry x="753.6" y="530" width="100" height="30" as="geometry" />
        </mxCell>
        <mxCell id="Q2M60HAg96HcqKf-Kk6D-239" style="edgeStyle=orthogonalEdgeStyle;rounded=0;orthogonalLoop=1;jettySize=auto;html=1;exitX=0.5;exitY=0;exitDx=0;exitDy=0;entryX=0.5;entryY=1;entryDx=0;entryDy=0;" edge="1" parent="1" source="Q2M60HAg96HcqKf-Kk6D-225" target="Q2M60HAg96HcqKf-Kk6D-238">
          <mxGeometry relative="1" as="geometry" />
        </mxCell>
        <mxCell id="Q2M60HAg96HcqKf-Kk6D-225" value="" style="shape=orEllipse;perimeter=ellipsePerimeter;whiteSpace=wrap;html=1;backgroundOutline=1;fontStyle=1;" vertex="1" parent="1">
          <mxGeometry x="851.0500000000001" y="440" width="20" height="20" as="geometry" />
        </mxCell>
        <mxCell id="Q2M60HAg96HcqKf-Kk6D-234" style="edgeStyle=orthogonalEdgeStyle;rounded=0;orthogonalLoop=1;jettySize=auto;html=1;exitX=1;exitY=0.5;exitDx=0;exitDy=0;" edge="1" parent="1" source="Q2M60HAg96HcqKf-Kk6D-227">
          <mxGeometry relative="1" as="geometry">
            <mxPoint x="1015.8499999999999" y="501.7142857142858" as="targetPoint" />
          </mxGeometry>
        </mxCell>
        <mxCell id="Q2M60HAg96HcqKf-Kk6D-227" value="&lt;font&gt;Message&lt;br&gt;Generator&lt;/font&gt;" style="rounded=1;whiteSpace=wrap;html=1;fillColor=#dae8fc;strokeColor=#6c8ebf;fontFamily=Garamond;" vertex="1" parent="1">
          <mxGeometry x="906.0699999999998" y="484" width="69.4" height="35" as="geometry" />
        </mxCell>
        <mxCell id="Q2M60HAg96HcqKf-Kk6D-229" value="&lt;span style=&quot;text-align: start; white-space: pre-wrap;&quot;&gt;$$m_{i-}^t$$&lt;/span&gt;" style="text;html=1;align=center;verticalAlign=middle;resizable=0;points=[];autosize=1;strokeColor=none;fillColor=none;fontSize=11;" vertex="1" parent="1">
          <mxGeometry x="955.85" y="475" width="80" height="30" as="geometry" />
        </mxCell>
        <mxCell id="Q2M60HAg96HcqKf-Kk6D-235" value="&lt;span style=&quot;text-align: start; white-space: pre-wrap;&quot;&gt;$$m_{-i}^t$$&lt;/span&gt;" style="text;html=1;align=center;verticalAlign=middle;resizable=0;points=[];autosize=1;strokeColor=none;fillColor=none;fontSize=11;" vertex="1" parent="1">
          <mxGeometry x="785.85" y="420" width="80" height="30" as="geometry" />
        </mxCell>
        <mxCell id="Q2M60HAg96HcqKf-Kk6D-236" style="rounded=0;orthogonalLoop=1;jettySize=auto;html=1;entryX=0;entryY=0.5;entryDx=0;entryDy=0;exitX=0.121;exitY=0.986;exitDx=0;exitDy=0;exitPerimeter=0;" edge="1" parent="1" source="Q2M60HAg96HcqKf-Kk6D-235" target="Q2M60HAg96HcqKf-Kk6D-225">
          <mxGeometry relative="1" as="geometry">
            <mxPoint x="838.85" y="560" as="targetPoint" />
            <mxPoint x="785.85" y="560" as="sourcePoint" />
          </mxGeometry>
        </mxCell>
        <mxCell id="Q2M60HAg96HcqKf-Kk6D-237" value="&lt;span style=&quot;text-align: start; white-space: pre-wrap;&quot;&gt;$$\tau_i^t$$&lt;/span&gt;" style="text;html=1;align=center;verticalAlign=middle;resizable=0;points=[];autosize=1;strokeColor=none;fillColor=none;fontSize=11;" vertex="1" parent="1">
          <mxGeometry x="831.0500000000001" y="510" width="80" height="30" as="geometry" />
        </mxCell>
        <mxCell id="Q2M60HAg96HcqKf-Kk6D-241" style="edgeStyle=orthogonalEdgeStyle;rounded=0;orthogonalLoop=1;jettySize=auto;html=1;exitX=0.5;exitY=0;exitDx=0;exitDy=0;" edge="1" parent="1" source="Q2M60HAg96HcqKf-Kk6D-238" target="Q2M60HAg96HcqKf-Kk6D-240">
          <mxGeometry relative="1" as="geometry" />
        </mxCell>
        <mxCell id="Q2M60HAg96HcqKf-Kk6D-238" value="MLP" style="rounded=1;whiteSpace=wrap;html=1;fillColor=#ffffd9;fontFamily=Garamond;" vertex="1" parent="1">
          <mxGeometry x="831.0500000000001" y="380" width="60" height="30" as="geometry" />
        </mxCell>
        <mxCell id="Q2M60HAg96HcqKf-Kk6D-240" value="&lt;span style=&quot;text-align: start; white-space: pre-wrap;&quot;&gt;$$Q_i(\tau_i^t,a_i^t,m_{-i})$$&lt;/span&gt;" style="text;html=1;align=center;verticalAlign=middle;resizable=0;points=[];autosize=1;strokeColor=none;fillColor=none;fontSize=11;" vertex="1" parent="1">
          <mxGeometry x="776.0500000000001" y="310" width="170" height="30" as="geometry" />
        </mxCell>
        <mxCell id="Q2M60HAg96HcqKf-Kk6D-264" style="rounded=0;orthogonalLoop=1;jettySize=auto;html=1;entryX=0.016;entryY=0.068;entryDx=0;entryDy=0;entryPerimeter=0;endArrow=none;endFill=0;exitX=1;exitY=0;exitDx=0;exitDy=0;dashed=1;fillColor=#e1d5e7;strokeColor=#9673a6;" edge="1" parent="1" source="Q2M60HAg96HcqKf-Kk6D-190" target="Q2M60HAg96HcqKf-Kk6D-263">
          <mxGeometry relative="1" as="geometry">
            <mxPoint x="673.6" y="546" as="sourcePoint" />
          </mxGeometry>
        </mxCell>
        <mxCell id="Q2M60HAg96HcqKf-Kk6D-265" style="rounded=0;orthogonalLoop=1;jettySize=auto;html=1;entryX=0.067;entryY=0.982;entryDx=0;entryDy=0;entryPerimeter=0;endArrow=none;endFill=0;exitX=1;exitY=1;exitDx=0;exitDy=0;dashed=1;fillColor=#e1d5e7;strokeColor=#9673a6;" edge="1" parent="1" source="Q2M60HAg96HcqKf-Kk6D-190" target="Q2M60HAg96HcqKf-Kk6D-263">
          <mxGeometry relative="1" as="geometry">
            <mxPoint x="693.6" y="635" as="sourcePoint" />
            <mxPoint x="766.6" y="470" as="targetPoint" />
          </mxGeometry>
        </mxCell>
        <mxCell id="Q2M60HAg96HcqKf-Kk6D-290" style="edgeStyle=orthogonalEdgeStyle;rounded=0;orthogonalLoop=1;jettySize=auto;html=1;" edge="1" parent="1" source="Q2M60HAg96HcqKf-Kk6D-269" target="Q2M60HAg96HcqKf-Kk6D-288">
          <mxGeometry relative="1" as="geometry" />
        </mxCell>
        <mxCell id="Q2M60HAg96HcqKf-Kk6D-269" value="Diffusion Module" style="rounded=1;whiteSpace=wrap;html=1;fillColor=#d5e8d4;fontFamily=Garamond;strokeColor=#82b366;" vertex="1" parent="1">
          <mxGeometry x="1137.6" y="452" width="190" height="30" as="geometry" />
        </mxCell>
        <mxCell id="Q2M60HAg96HcqKf-Kk6D-276" style="edgeStyle=orthogonalEdgeStyle;rounded=0;orthogonalLoop=1;jettySize=auto;html=1;exitX=0.5;exitY=0;exitDx=0;exitDy=0;entryX=0.857;entryY=1.008;entryDx=0;entryDy=0;entryPerimeter=0;" edge="1" parent="1" source="Q2M60HAg96HcqKf-Kk6D-271" target="Q2M60HAg96HcqKf-Kk6D-296">
          <mxGeometry relative="1" as="geometry">
            <mxPoint x="1232.5714285714287" y="608" as="targetPoint" />
          </mxGeometry>
        </mxCell>
        <mxCell id="Q2M60HAg96HcqKf-Kk6D-271" value="&lt;span style=&quot;font-size: 11px; text-align: start; white-space-collapse: preserve;&quot;&gt;$$\tau_i^t$$&lt;/span&gt;" style="text;html=1;align=center;verticalAlign=middle;whiteSpace=wrap;rounded=0;" vertex="1" parent="1">
          <mxGeometry x="1225" y="628" width="15.38" height="18" as="geometry" />
        </mxCell>
        <mxCell id="Q2M60HAg96HcqKf-Kk6D-278" style="edgeStyle=orthogonalEdgeStyle;rounded=0;orthogonalLoop=1;jettySize=auto;html=1;entryX=0;entryY=0.5;entryDx=0;entryDy=0;exitX=1;exitY=0.5;exitDx=0;exitDy=0;" edge="1" parent="1" source="Q2M60HAg96HcqKf-Kk6D-279" target="Q2M60HAg96HcqKf-Kk6D-269">
          <mxGeometry relative="1" as="geometry">
            <mxPoint x="1170.6" y="513" as="sourcePoint" />
            <mxPoint x="1227.6" y="493" as="targetPoint" />
          </mxGeometry>
        </mxCell>
        <mxCell id="Q2M60HAg96HcqKf-Kk6D-279" value="&lt;span style=&quot;font-size: 11px; text-align: start; white-space-collapse: preserve;&quot;&gt;noise&lt;/span&gt;" style="text;html=1;align=center;verticalAlign=middle;whiteSpace=wrap;rounded=0;" vertex="1" parent="1">
          <mxGeometry x="1067.6" y="457.8699999999999" width="30.38" height="18.25" as="geometry" />
        </mxCell>
        <mxCell id="Q2M60HAg96HcqKf-Kk6D-282" style="edgeStyle=orthogonalEdgeStyle;rounded=0;orthogonalLoop=1;jettySize=auto;html=1;exitX=0.5;exitY=0;exitDx=0;exitDy=0;entryX=0.5;entryY=1;entryDx=0;entryDy=0;" edge="1" parent="1" source="Q2M60HAg96HcqKf-Kk6D-280" target="Q2M60HAg96HcqKf-Kk6D-281">
          <mxGeometry relative="1" as="geometry" />
        </mxCell>
        <mxCell id="Q2M60HAg96HcqKf-Kk6D-280" value="&lt;div style=&quot;text-align: start;&quot;&gt;&lt;span style=&quot;background-color: transparent; color: light-dark(rgb(0, 0, 0), rgb(255, 255, 255)); font-size: 11px; white-space-collapse: preserve;&quot;&gt;Agent ID&lt;/span&gt;&lt;/div&gt;" style="text;html=1;align=center;verticalAlign=middle;whiteSpace=wrap;rounded=0;" vertex="1" parent="1">
          <mxGeometry x="1128" y="625.3699999999999" width="50" height="18.25" as="geometry" />
        </mxCell>
        <mxCell id="Q2M60HAg96HcqKf-Kk6D-281" value="Emb" style="rounded=1;whiteSpace=wrap;html=1;fillColor=#ffffd9;fontFamily=Garamond;" vertex="1" parent="1">
          <mxGeometry x="1122.6" y="580" width="60" height="28.25" as="geometry" />
        </mxCell>
        <mxCell id="Q2M60HAg96HcqKf-Kk6D-284" style="edgeStyle=orthogonalEdgeStyle;rounded=0;orthogonalLoop=1;jettySize=auto;html=1;exitX=0.5;exitY=0;exitDx=0;exitDy=0;" edge="1" parent="1" source="Q2M60HAg96HcqKf-Kk6D-285">
          <mxGeometry relative="1" as="geometry">
            <mxPoint x="1317.6" y="513" as="sourcePoint" />
            <mxPoint x="1317.6" y="483" as="targetPoint" />
          </mxGeometry>
        </mxCell>
        <mxCell id="Q2M60HAg96HcqKf-Kk6D-285" value="&lt;span style=&quot;font-size: 11px; text-align: start; white-space-collapse: preserve;&quot;&gt;k&lt;/span&gt;" style="text;html=1;align=center;verticalAlign=middle;whiteSpace=wrap;rounded=0;" vertex="1" parent="1">
          <mxGeometry x="1310.2199999999998" y="518" width="15.38" height="20" as="geometry" />
        </mxCell>
        <mxCell id="Q2M60HAg96HcqKf-Kk6D-287" value="&lt;span style=&quot;text-align: start; white-space: pre-wrap;&quot;&gt;$$m_{i1}$$&lt;/span&gt;" style="text;html=1;align=center;verticalAlign=middle;resizable=0;points=[];autosize=1;strokeColor=none;fillColor=none;fontSize=11;" vertex="1" parent="1">
          <mxGeometry x="1122.6" y="383" width="80" height="30" as="geometry" />
        </mxCell>
        <mxCell id="Q2M60HAg96HcqKf-Kk6D-288" value="&lt;span style=&quot;text-align: start; white-space: pre-wrap;&quot;&gt;$$m_{ij}$$&lt;/span&gt;" style="text;html=1;align=center;verticalAlign=middle;resizable=0;points=[];autosize=1;strokeColor=none;fillColor=none;fontSize=11;" vertex="1" parent="1">
          <mxGeometry x="1192.6" y="383" width="80" height="30" as="geometry" />
        </mxCell>
        <mxCell id="Q2M60HAg96HcqKf-Kk6D-289" value="&lt;span style=&quot;text-align: start; white-space: pre-wrap;&quot;&gt;$$m_{in}$$&lt;/span&gt;" style="text;html=1;align=center;verticalAlign=middle;resizable=0;points=[];autosize=1;strokeColor=none;fillColor=none;fontSize=11;" vertex="1" parent="1">
          <mxGeometry x="1262.6" y="383" width="80" height="30" as="geometry" />
        </mxCell>
        <mxCell id="Q2M60HAg96HcqKf-Kk6D-291" style="edgeStyle=orthogonalEdgeStyle;rounded=0;orthogonalLoop=1;jettySize=auto;html=1;exitX=0.131;exitY=-0.009;exitDx=0;exitDy=0;exitPerimeter=0;" edge="1" parent="1" source="Q2M60HAg96HcqKf-Kk6D-269" target="Q2M60HAg96HcqKf-Kk6D-287">
          <mxGeometry relative="1" as="geometry">
            <mxPoint x="1162.6" y="453" as="sourcePoint" />
            <mxPoint x="1227.6" y="413" as="targetPoint" />
          </mxGeometry>
        </mxCell>
        <mxCell id="Q2M60HAg96HcqKf-Kk6D-292" style="edgeStyle=orthogonalEdgeStyle;rounded=0;orthogonalLoop=1;jettySize=auto;html=1;exitX=0.922;exitY=0.02;exitDx=0;exitDy=0;exitPerimeter=0;" edge="1" parent="1">
          <mxGeometry relative="1" as="geometry">
            <mxPoint x="1304.7799999999997" y="452.5999999999999" as="sourcePoint" />
            <mxPoint x="1304.6" y="413" as="targetPoint" />
          </mxGeometry>
        </mxCell>
        <mxCell id="Q2M60HAg96HcqKf-Kk6D-294" style="rounded=0;orthogonalLoop=1;jettySize=auto;html=1;entryX=0.045;entryY=0.968;entryDx=0;entryDy=0;entryPerimeter=0;endArrow=none;endFill=0;exitX=0.925;exitY=1.009;exitDx=0;exitDy=0;dashed=1;fillColor=#dae8fc;strokeColor=#6c8ebf;exitPerimeter=0;" edge="1" parent="1" source="Q2M60HAg96HcqKf-Kk6D-227" target="Q2M60HAg96HcqKf-Kk6D-293">
          <mxGeometry relative="1" as="geometry">
            <mxPoint x="713.6" y="615" as="sourcePoint" />
            <mxPoint x="786.6" y="450" as="targetPoint" />
          </mxGeometry>
        </mxCell>
        <mxCell id="Q2M60HAg96HcqKf-Kk6D-295" style="rounded=0;orthogonalLoop=1;jettySize=auto;html=1;entryX=0.05;entryY=0.026;entryDx=0;entryDy=0;entryPerimeter=0;endArrow=none;endFill=0;exitX=1;exitY=0;exitDx=0;exitDy=0;dashed=1;fillColor=#dae8fc;strokeColor=#6c8ebf;" edge="1" parent="1" source="Q2M60HAg96HcqKf-Kk6D-227" target="Q2M60HAg96HcqKf-Kk6D-293">
          <mxGeometry relative="1" as="geometry">
            <mxPoint x="1024.98" y="482" as="sourcePoint" />
            <mxPoint x="1097.98" y="317" as="targetPoint" />
          </mxGeometry>
        </mxCell>
        <mxCell id="Q2M60HAg96HcqKf-Kk6D-296" value="Concat" style="rounded=1;whiteSpace=wrap;html=1;fillColor=#f5f5f5;fontFamily=Garamond;fontColor=#333333;strokeColor=#666666;" vertex="1" parent="1">
          <mxGeometry x="1137.6" y="530" width="110" height="19" as="geometry" />
        </mxCell>
        <mxCell id="Q2M60HAg96HcqKf-Kk6D-297" style="edgeStyle=orthogonalEdgeStyle;rounded=0;orthogonalLoop=1;jettySize=auto;html=1;exitX=0.5;exitY=0;exitDx=0;exitDy=0;entryX=0.117;entryY=0.957;entryDx=0;entryDy=0;entryPerimeter=0;" edge="1" parent="1" source="Q2M60HAg96HcqKf-Kk6D-281" target="Q2M60HAg96HcqKf-Kk6D-296">
          <mxGeometry relative="1" as="geometry" />
        </mxCell>
        <mxCell id="Q2M60HAg96HcqKf-Kk6D-300" style="edgeStyle=orthogonalEdgeStyle;rounded=0;orthogonalLoop=1;jettySize=auto;html=1;exitX=0.5;exitY=0;exitDx=0;exitDy=0;entryX=0.289;entryY=0.976;entryDx=0;entryDy=0;entryPerimeter=0;" edge="1" parent="1" source="Q2M60HAg96HcqKf-Kk6D-296" target="Q2M60HAg96HcqKf-Kk6D-269">
          <mxGeometry relative="1" as="geometry" />
        </mxCell>
        <mxCell id="Q2M60HAg96HcqKf-Kk6D-301" value="cond" style="edgeLabel;html=1;align=center;verticalAlign=middle;resizable=0;points=[];" vertex="1" connectable="0" parent="Q2M60HAg96HcqKf-Kk6D-300">
          <mxGeometry x="-0.0231" y="-1" relative="1" as="geometry">
            <mxPoint as="offset" />
          </mxGeometry>
        </mxCell>
      </root>
    </mxGraphModel>
  </diagram>
</mxfile>
